<?xml version="1.0" encoding="UTF-8"?>
<svg width="230px" height="100px" viewBox="0 0 230 100" version="1.1" xmlns="http://www.w3.org/2000/svg" xmlns:xlink="http://www.w3.org/1999/xlink">
    <!-- Generator: Sketch 57.1 (83088) - https://sketch.com -->
    <title>molecules/illustrations/use-cases</title>
    <desc>Created with Sketch.</desc>
    <defs>
        <polygon id="path-1" points="66 37.2168933 66 29.5433071 56.8542857 26.4738726 54.7328571 21.2462419 58.8814286 12.4216178 53.5542857 7.00214746 45.0214286 11.3664996 39.8828571 9.20830351 36.63 0 29.0871429 0 26.1171429 9.30422334 20.8842857 11.4624195 12.21 7.24194703 6.88285714 12.6614173 11.1728571 21.3421618 9.05142857 26.5697924 0 29.8310666 0 37.4566929 9.14571429 40.5261274 11.2671429 45.7537581 7.11857143 54.5783822 12.4457143 59.9978525 20.9785714 55.6335004 26.1171429 57.7916965 29.37 67 36.8657143 67 39.8357143 57.6957767 45.0685714 55.5375805 53.7428571 59.758053 59.07 54.3385827 54.7328571 45.6578382 56.9485714 40.4302076 66 37.1209735"></polygon>
        <path d="M16.2857143,76.95 C16.2857143,79.1775 18.1178571,81 20.3571429,81 L36.6428571,81 C38.8821429,81 40.7142857,79.1775 40.7142857,76.95 L40.7142857,72.9 L16.2857143,72.9 L16.2857143,76.95 L16.2857143,76.95 Z M28.5,0 C12.7842857,0 0,12.717 0,28.35 C0,37.989 4.845,46.4535 12.2142857,51.597 L12.2142857,60.75 C12.2142857,62.9775 14.0464286,64.8 16.2857143,64.8 L40.7142857,64.8 C42.9535714,64.8 44.7857143,62.9775 44.7857143,60.75 L44.7857143,51.597 C52.155,46.4535 57,37.989 57,28.35 C57,12.717 44.2157143,0 28.5,0 L28.5,0 Z M40.1035714,44.955 L36.6428571,47.385 L36.6428571,56.7 L20.3571429,56.7 L20.3571429,47.385 L16.8964286,44.955 C11.4,41.148 8.14285714,34.9515 8.14285714,28.35 C8.14285714,17.172 17.2628571,8.1 28.5,8.1 C39.7371429,8.1 48.8571429,17.172 48.8571429,28.35 C48.8571429,34.9515 45.6,41.148 40.1035714,44.955 L40.1035714,44.955 Z" id="path-3"></path>
        <path d="M40.1035714,44.955 L36.6428571,47.385 L36.6428571,56.7 L20.3571429,56.7 L20.3571429,47.385 L16.8964286,44.955 C11.4,41.148 8.14285714,34.9515 8.14285714,28.35 C8.14285714,17.172 17.2628571,8.1 28.5,8.1 C39.7371429,8.1 48.8571429,17.172 48.8571429,28.35 C48.8571429,34.9515 45.6,41.148 40.1035714,44.955 L40.1035714,44.955 Z" id="path-5"></path>
    </defs>
    <g id="molecules/illustrations/use-cases" stroke="none" stroke-width="1" fill="none" fill-rule="evenodd">
        <g transform="translate(2.000000, 1.000000)">
            <g id="atoms/icon/gear">
                <g id="Path">
                    <g>
                        <mask id="mask-2" fill="white">
                            <use xlink:href="#path-1"></use>
                        </mask>
                        <use id="Mask" fill="#F8F9FA" xlink:href="#path-1"></use>
                        <g id="styleguide/color/grey-1#1" mask="url(#mask-2)" fill="#5F5F5F">
                            <rect id="Rectangle" x="0" y="0" width="66" height="67"></rect>
                        </g>
                        <path d="M33,47.9119542 C25.1742857,47.9119542 18.8571429,41.4853257 18.8571429,33.52398 C18.8571429,25.5626342 25.1742857,19.1360057 33,19.1360057 C40.8257143,19.1360057 47.1428571,25.5626342 47.1428571,33.52398 C47.1428571,41.4853257 40.8257143,47.9119542 33,47.9119542 Z" fill="#F8F9FA" mask="url(#mask-2)"></path>
                    </g>
                </g>
            </g>
            <g id="atoms/icon/ic_lightbulb_outline" transform="translate(33.194337, 15.101124)">
                <g>
                    <mask id="mask-4" fill="white">
                        <use xlink:href="#path-3"></use>
                    </mask>
                    <use id="Mask" fill="#000000" xlink:href="#path-3"></use>
                    <g id="styleguide/color/blue_1" mask="url(#mask-4)" fill="#347CFF">
                        <rect id="Rectangle" x="0" y="0" width="57" height="81"></rect>
                    </g>
                    <mask id="mask-6" fill="white">
                        <use xlink:href="#path-5"></use>
                    </mask>
                    <use id="glass" fill-opacity="0.3" fill="#347CFF" xlink:href="#path-5"></use>
                </g>
            </g>
        </g>
        <g id="text" transform="translate(110.000000, 22.000000)" stroke="#347CFF" stroke-linecap="round">
            <path d="M55.3378378,44.8 L105.756757,44.8" id="line" stroke-width="6"></path>
            <path d="M0.614864865,44.8 L41.8108108,44.8" id="line" stroke-width="6"></path>
            <path d="M0.614864865,32.8 L81.1621622,32.8" id="line" stroke-width="6"></path>
            <path d="M0.614864865,20.8 L105.756757,20.8" id="line" stroke-width="6"></path>
            <path d="M1.61486486,0.8 L104.614865,0.8" id="line" stroke-width="9"></path>
        </g>
    </g>
</svg>