<svg width="1114" height="544" xmlns="http://www.w3.org/2000/svg" xmlns:xlink="http://www.w3.org/1999/xlink" overflow="hidden"><defs><clipPath id="clip0"><rect x="150" y="12" width="1114" height="544"/></clipPath></defs><g clip-path="url(#clip0)" transform="translate(-150 -12)"><path d="M1263 555 1006 555 749 298 749 15 1263 15Z" fill="#FFC000" fill-rule="evenodd" fill-opacity="0.501961"/><rect x="789.5" y="222.591" width="108.909" height="83.9093" fill="#4472C4"/><path d="M898.409 222.591 925.5 195.5 925.5 279.409 898.409 306.5Z" fill="#375C9E" fill-rule="evenodd"/><path d="M789.5 222.591 816.591 195.5 925.5 195.5 898.409 222.591Z" fill="#698ED0" fill-rule="evenodd"/><path d="M789.5 222.591 816.591 195.5 925.5 195.5 925.5 279.409 898.409 306.5 789.5 306.5ZM789.5 222.591 898.409 222.591 925.5 195.5M898.409 222.591 898.409 306.5" stroke="#2F528F" stroke-width="1.33333" stroke-miterlimit="8" fill="none" fill-rule="evenodd"/><text fill="#FFFFFF" font-family="Calibri,Calibri_MSFontService,sans-serif" font-weight="400" font-size="24" transform="translate(812.806 272)">Peer 1</text><rect x="1051.5" y="91.5907" width="109.909" height="83.9094" fill="#4472C4"/><path d="M1161.41 91.5907 1188.5 64.5001 1188.5 148.409 1161.41 175.5Z" fill="#375C9E" fill-rule="evenodd"/><path d="M1051.5 91.5907 1078.59 64.5001 1188.5 64.5001 1161.41 91.5907Z" fill="#698ED0" fill-rule="evenodd"/><path d="M1051.5 91.5907 1078.59 64.5001 1188.5 64.5001 1188.5 148.409 1161.41 175.5 1051.5 175.5ZM1051.5 91.5907 1161.41 91.5907 1188.5 64.5001M1161.41 91.5907 1161.41 175.5" stroke="#2F528F" stroke-width="1.33333" stroke-miterlimit="8" fill="none" fill-rule="evenodd"/><text fill="#FFFFFF" font-family="Calibri,Calibri_MSFontService,sans-serif" font-weight="400" font-size="24" transform="translate(1075.01 141)">Peer 2</text><rect x="1057.5" y="360.591" width="108.909" height="83.9093" fill="#4472C4"/><path d="M1166.41 360.591 1193.5 333.5 1193.5 417.409 1166.41 444.5Z" fill="#375C9E" fill-rule="evenodd"/><path d="M1057.5 360.591 1084.59 333.5 1193.5 333.5 1166.41 360.591Z" fill="#698ED0" fill-rule="evenodd"/><path d="M1057.5 360.591 1084.59 333.5 1193.5 333.5 1193.5 417.409 1166.41 444.5 1057.5 444.5ZM1057.5 360.591 1166.41 360.591 1193.5 333.5M1166.41 360.591 1166.41 444.5" stroke="#2F528F" stroke-width="1.33333" stroke-miterlimit="8" fill="none" fill-rule="evenodd"/><text fill="#FFFFFF" font-family="Calibri,Calibri_MSFontService,sans-serif" font-weight="400" font-size="24" transform="translate(1080.8 410)">Peer 3</text><rect x="151.5" y="234.5" width="157" height="56" stroke="#2F528F" stroke-width="1.33333" stroke-miterlimit="8" fill="#4472C4"/><text fill="#FFFFFF" font-family="Calibri,Calibri_MSFontService,sans-serif" font-weight="400" font-size="24" transform="translate(188.542 255)">Backend <tspan font-size="24" x="9.78667" y="29">Server</tspan></text><path d="M308.001 261 710.376 261.427 710.374 263.427 307.999 263ZM709.047 258.425 717.042 262.434 709.038 266.425Z"/><rect x="857.5" y="293.5" width="71" height="94" stroke="#AE5A21" stroke-width="1.33333" stroke-miterlimit="8" fill="#ED7D31"/><text fill="#FFFFFF" font-family="Calibri,Calibri_MSFontService,sans-serif" font-weight="400" font-size="24" transform="translate(880.567 319)">#1<tspan font-size="24" x="0" y="29">#2</tspan><tspan font-size="24" x="0" y="58">#3</tspan></text><rect x="815.5" y="153.5" width="89" height="59" stroke="#000000" stroke-width="1.33333" stroke-miterlimit="8"/><text fill="#FFFFFF" font-family="Calibri,Calibri_MSFontService,sans-serif" font-weight="400" font-size="24" transform="translate(837.916 176)">MSP <tspan font-size="24" x="-1.7533" y="29">Org1</tspan></text><rect x="1079.5" y="22.5001" width="89" height="59" stroke="#000000" stroke-width="1.33333" stroke-miterlimit="8"/><text fill="#FFFFFF" font-family="Calibri,Calibri_MSFontService,sans-serif" font-weight="400" font-size="24" transform="translate(1101.4 45)">MSP <tspan font-size="24" x="-1.7533" y="29">Org2</tspan></text><rect x="1082.5" y="291.5" width="89" height="59" stroke="#000000" stroke-width="1.33333" stroke-miterlimit="8"/><text fill="#FFFFFF" font-family="Calibri,Calibri_MSFontService,sans-serif" font-weight="400" font-size="24" transform="translate(1104.93 314)">MSP <tspan font-size="24" x="-1.7533" y="29">Org3</tspan></text><path d="M151.5 35.1251C151.5 45.9637 186.646 54.7501 230 54.7501 273.355 54.7501 308.5 45.9637 308.5 35.1251L308.5 174.875C308.5 185.714 273.354 194.5 230 194.5 186.646 194.5 151.5 185.714 151.5 174.875Z" fill="#C00000" fill-rule="evenodd"/><path d="M151.5 35.1251C151.5 24.2865 186.646 15.5001 230 15.5001 273.355 15.5001 308.5 24.2865 308.5 35.1251 308.5 45.9637 273.355 54.7501 230 54.7501 186.646 54.7501 151.5 45.9637 151.5 35.1251Z" fill="#D96666" fill-rule="evenodd"/><path d="M308.5 35.1251C308.5 45.9637 273.354 54.7501 230 54.7501 186.646 54.7501 151.5 45.9637 151.5 35.1251 151.5 24.2865 186.646 15.5001 230 15.5001 273.354 15.5001 308.5 24.2865 308.5 35.1251L308.5 174.875C308.5 185.714 273.354 194.5 230 194.5 186.646 194.5 151.5 185.714 151.5 174.875L151.5 35.1251" stroke="#843C0C" stroke-width="1.33333" stroke-miterlimit="8" fill="none" fill-rule="evenodd"/><rect x="153.5" y="135.5" width="153" height="25" stroke="#000000" stroke-width="1.33333" stroke-miterlimit="8"/><text fill="#FFFFFF" font-family="Calibri,Calibri_MSFontService,sans-serif" font-weight="400" font-size="24" transform="translate(169.639 155)">B_cert_org1</text><rect x="154.5" y="101.5" width="152" height="25" stroke="#000000" stroke-width="1.33333" stroke-miterlimit="8"/><text fill="#FFFFFF" font-family="Calibri,Calibri_MSFontService,sans-serif" font-weight="400" font-size="24" transform="translate(169.332 121)">A_cert<tspan font-size="24" x="64.3333" y="0">_</tspan>org1<tspan font-size="24" x="46.2271" y="-35">DB</tspan></text><path d="M229 234.124 229 200.667 231 200.667 231 234.124ZM226 202 230 194 234 202Z"/><path d="M231 194 231 227.458 229 227.458 229 194ZM234 226.124 230 234.124 226 226.124Z"/><rect x="717.5" y="231.5" width="79" height="63" stroke="#C00000" stroke-width="1.33333" stroke-miterlimit="8" fill="#FF0000"/><text fill="#FFFFFF" font-family="Calibri,Calibri_MSFontService,sans-serif" font-weight="400" font-size="24" transform="translate(729.127 256)">Chain <tspan font-size="24" x="2.5" y="29">Code</tspan></text><rect x="979.5" y="102.5" width="77.9999" height="63" stroke="#C00000" stroke-width="1.33333" stroke-miterlimit="8" fill="#FF0000"/><text fill="#FFFFFF" font-family="Calibri,Calibri_MSFontService,sans-serif" font-weight="400" font-size="24" transform="translate(990.311 127)">Chain <tspan font-size="24" x="2.5" y="29">Code</tspan></text><rect x="987.5" y="374.5" width="78.9999" height="62" stroke="#C00000" stroke-width="1.33333" stroke-miterlimit="8" fill="#FF0000"/><text fill="#FFFFFF" font-family="Calibri,Calibri_MSFontService,sans-serif" font-weight="400" font-size="24" transform="translate(998.596 398)">Chain <tspan font-size="24" x="2.5" y="29">Code</tspan></text><rect x="1120.5" y="162.5" width="71" height="94" stroke="#AE5A21" stroke-width="1.33333" stroke-miterlimit="8" fill="#ED7D31"/><text fill="#FFFFFF" font-family="Calibri,Calibri_MSFontService,sans-serif" font-weight="400" font-size="24" transform="translate(1142.98 188)">#1<tspan font-size="24" x="0" y="29">#2</tspan><tspan font-size="24" x="0" y="58">#3</tspan></text><rect x="1122.5" y="432.5" width="71" height="94" stroke="#AE5A21" stroke-width="1.33333" stroke-miterlimit="8" fill="#ED7D31"/><text fill="#FFFFFF" font-family="Calibri,Calibri_MSFontService,sans-serif" font-weight="400" font-size="24" transform="translate(1145.85 458)">#1<tspan font-size="24" x="0" y="29">#2</tspan><tspan font-size="24" x="0" y="58">#3</tspan><tspan fill="#000000" font-weight="700" font-size="24" x="-391.428" y="-416">Blockchain</tspan><tspan fill="#000000" font-weight="700" font-size="24" x="-279.455" y="-416">Network</tspan></text></g></svg>